<svg width="45" height="46" viewBox="0 0 45 46" fill="none" xmlns="http://www.w3.org/2000/svg">
    <path d="M15.7555 13.1429L18.5749 9.96852C16.2346 9.91283 10.6364 10.8707 6.96561 14.9249C5.36296 16.3538 2.11403 20.6692 1.93508 26.5025L4.80716 26.4936C4.7498 22.1332 7.38166 17.6346 10.3931 15.6489C13.4173 13.6548 14.4727 13.4237 15.7351 13.1473L15.7555 13.1429Z" fill="#123E89"/>
    <path d="M4.85161 27.7337C4.83378 27.3956 4.81979 27.0263 4.80958 26.6199C4.80852 26.5778 4.80772 26.5357 4.80716 26.4936L1.93508 26.5025L1.93489 26.5085C1.91741 26.8893 1.91655 27.2996 1.93524 27.7337H4.85161Z" fill="#123E89"/>
    <path d="M4.03029 35.2687L6.08758 32.8672C5.39673 31.1623 4.99681 30.4864 4.85161 27.7337H1.93524C2.02838 29.8977 2.60711 32.6506 4.03029 35.2687Z" fill="#123E89"/>
    <path d="M0 26.5085V27.7337H1.93524C1.91655 27.2996 1.91741 26.8893 1.93489 26.5085L1.93508 26.5025L0 26.5085Z" fill="#123E89"/>
    <path d="M10.5992 27.7337L11.7086 26.4722L4.80716 26.4936C4.80772 26.5357 4.80852 26.5778 4.80958 26.6199C4.81979 27.0263 4.83378 27.3956 4.85161 27.7337H10.5992Z" fill="#123E89"/>
    <path d="M12.0744 27.7337L13.1462 26.4677L11.7086 26.4722L10.5992 27.7337H12.0744Z" fill="#123E89"/>
    <path d="M17.414 21.4964C17.5808 21.2924 17.7692 21.0792 17.9668 20.867V19.5235L17.027 20.4939L15.2027 22.4988L11.7086 26.4722L13.1462 26.4677L15.0921 24.1695C15.7002 23.5012 16.64 22.4431 17.414 21.4964Z" fill="#123E89"/>
    <path d="M15.0828 27.7337C15.0856 27.6968 15.0888 27.6597 15.0921 27.6223C15.146 27.3741 15.2688 26.9521 15.487 26.4605L13.1462 26.4677L12.0744 27.7337H15.0828Z" fill="#123E89"/>
    <path d="M16.1801 27.7337C16.1857 27.697 16.1916 27.6599 16.1978 27.6223C16.2237 27.3703 16.3319 26.9442 16.5713 26.4571L15.487 26.4605C15.2688 26.9521 15.146 27.3741 15.0921 27.6223C15.0888 27.6597 15.0856 27.6968 15.0828 27.7337H16.1801Z" fill="#123E89"/>
    <path d="M17.9668 23.4386C17.6664 23.705 17.351 23.9883 17.027 24.2809C16.2804 24.9552 15.791 25.7755 15.487 26.4605L16.5713 26.4571C16.8433 25.9036 17.2846 25.2714 17.9668 24.7264V23.4386Z" fill="#123E89"/>
    <path d="M23.1634 26.5642C23.19 26.5315 23.2197 26.4942 23.252 26.4528H19.1278L19.1449 23.7535C18.737 24.0988 18.3326 24.4342 17.9668 24.7264V26.4528L16.5713 26.4571C16.3319 26.9442 16.2237 27.3703 16.1978 27.6223C16.1916 27.6599 16.1857 27.697 16.1801 27.7337H17.9668L17.9751 30.4618C18.3548 30.4254 18.7526 30.3342 19.1278 30.2397C19.1311 30.2389 19.1345 30.238 19.1378 30.2371C19.1395 30.2367 19.1412 30.2363 19.1429 30.2358L19.1278 27.7337L22.2499 27.714C22.6385 27.2423 22.9552 26.8192 23.1634 26.5642Z" fill="#123E89"/>
    <path d="M19.1278 31.4092C19.1352 31.4074 19.1426 31.4055 19.15 31.4037L19.1429 30.2358L19.1378 30.2371C19.1345 30.238 19.1311 30.2389 19.1278 30.2397C18.7526 30.3342 18.3548 30.4254 17.9751 30.4618L17.9785 31.596C18.3193 31.5744 18.7008 31.5147 19.1278 31.4092Z" fill="#123E89"/>
    <path d="M15.0828 27.7337C14.9918 28.9016 15.1559 29.7555 15.4238 30.2954C15.7403 31.0241 16.4487 31.6932 17.9785 31.596L17.9751 30.4618C16.8057 30.5739 15.8089 30.1663 16.1801 27.7337H15.0828Z" fill="#123E89"/>
    <path d="M17.9668 23.4386V24.7264C18.3326 24.4342 18.737 24.0988 19.1449 23.7535L19.1535 22.4146C18.8025 22.7052 18.4003 23.0542 17.9668 23.4386Z" fill="#123E89"/>
    <path d="M22.0577 19.1574C22.102 20.093 21.3943 20.661 20.0676 21.7191C19.8347 21.8684 19.5223 22.1092 19.1535 22.4146L19.1449 23.7535C20.1675 22.8881 21.2123 21.9608 21.726 21.4964C22.1683 21.1622 23.0372 20.342 23.1634 19.77C23.274 19.2688 23.2187 18.8232 23.1634 18.6562C23.1004 18.4657 22.6658 17.8208 21.6708 17.8208C20.6757 17.8208 20.5098 17.7651 19.2383 18.2107L19.1798 18.2711L19.1709 19.6816C19.4161 19.4599 19.6328 19.277 19.7912 19.1574C20.5283 18.7676 22.0135 18.2218 22.0577 19.1574Z" fill="#123E89"/>
    <path d="M17.9668 20.867V23.4386C18.4003 23.0542 18.8025 22.7052 19.1535 22.4146L19.1709 19.6816C18.8006 20.0163 18.3651 20.4395 17.9668 20.867Z" fill="#123E89"/>
    <path d="M19.183 17.7651H17.9668V19.5235L19.1798 18.2711L19.183 17.7651Z" fill="#123E89"/>
    <path d="M17.9668 19.5235V20.867C18.3651 20.4395 18.8006 20.0163 19.1709 19.6816L19.1798 18.2711L17.9668 19.5235Z" fill="#123E89"/>
    <path d="M26.9226 25.1162C26.8847 25.2307 26.5742 25.8243 26.2197 26.4528H27.5123C28.0701 25.2895 28.3534 23.9991 27.5307 23.2785C26.3111 22.2101 24.0142 25.4778 23.252 26.4528H24.5455C24.7297 26.1743 25.1978 25.5617 25.5958 25.1162C25.7948 24.8935 25.9275 24.6707 26.3145 24.5036C26.5356 24.4479 26.7789 24.4814 26.8673 24.615C26.9947 24.8074 26.9779 24.9492 26.9226 25.1162Z" fill="#123E89"/>
    <path d="M23.5504 27.678C24.3796 26.6199 24.5455 26.4528 24.5455 26.4528H23.252C23.2197 26.4942 23.19 26.5315 23.1634 26.5642C22.9552 26.8192 22.6385 27.2423 22.2499 27.714L23.5285 27.7059C23.5358 27.6965 23.5431 27.6872 23.5504 27.678Z" fill="#123E89"/>
    <path d="M25.4777 27.6937C25.4803 27.6884 25.4828 27.6832 25.4853 27.678C25.6985 27.3557 25.97 26.8956 26.2197 26.4528H24.5455C24.5455 26.4528 24.3796 26.6199 23.5504 27.678C23.5431 27.6872 23.5358 27.6965 23.5285 27.7059L25.4777 27.6937Z" fill="#123E89"/>
    <path d="M27.5123 26.4528H26.2197C25.97 26.8956 25.6985 27.3557 25.4853 27.678L25.4777 27.6937L26.8035 27.6853C27.0489 27.3183 27.3004 26.8947 27.5123 26.4528Z" fill="#123E89"/>
    <path d="M27.973 27.678V26.4528H27.5123C27.3004 26.8947 27.0489 27.3183 26.8035 27.6853L27.973 27.678Z" fill="#123E89"/>
    <path d="M22.2499 27.714C21.4222 28.7188 20.2684 29.9441 19.1429 30.2358L19.15 31.4037C21.4592 30.8219 22.7019 28.7692 23.5285 27.7059L22.2499 27.714Z" fill="#123E89"/>
    <path d="M19.2383 40.9879C19.2282 40.9883 19.2181 40.9888 19.208 40.9892L19.2249 43.7729C23.3684 43.5776 30.6608 41.3962 34.2199 33.5811C34.4595 32.6715 34.3526 31.0973 32.0086 32.0775C29.0786 33.3027 29.1339 33.7482 26.3145 34.0823C24.059 34.3496 25.5221 30.184 26.5356 28.0678C26.6225 27.9493 26.7126 27.8212 26.8035 27.6853L25.4777 27.6937C24.9409 28.8152 23.8821 31.303 23.8821 32.4116C23.8821 33.5254 24.3612 34.2123 24.6007 34.4165C24.8403 34.732 25.7629 35.4882 27.3649 35.0847C28.9128 34.6949 30.2396 33.9709 30.7924 33.5811V33.8039C30.0737 35.6973 28.5343 37.0986 28.36 37.2567C27.2543 38.2591 26.3145 38.8717 25.3194 39.3729C24.527 39.8555 22.2015 40.8542 19.2383 40.9879Z" fill="#123E89"/>
    <path d="M19.15 31.4037C19.1426 31.4055 19.1352 31.4074 19.1278 31.4092C18.7008 31.5147 18.3193 31.5744 17.9785 31.596L18.0069 40.9727C18.4023 40.9995 18.8035 41.0063 19.208 40.9892L19.15 31.4037Z" fill="#123E89"/>
    <path d="M10.7801 38.4262C10.0254 37.9193 8.03634 36.5294 6.55305 34.0823L4.66695 36.3403C7.00864 39.9565 11.1238 43.1077 18.0154 43.7717L18.0069 40.9727C14.7931 40.7552 11.9583 39.2174 10.7801 38.4262Z" fill="#123E89"/>
    <path d="M19.2249 43.7729L19.208 40.9892C18.8035 41.0063 18.4023 40.9995 18.0069 40.9727L18.0154 43.7717L18.0221 43.7724C18.3822 43.792 18.7859 43.7936 19.2249 43.7729Z" fill="#123E89"/>
    <path d="M18.0221 46H19.2383L19.2249 43.7729C18.7859 43.7936 18.3822 43.792 18.0221 43.7724L18.0154 43.7717L18.0221 46Z" fill="#123E89"/>
    <path d="M6.55305 34.0823L11.8858 27.9564L12.0744 27.7337H10.5992L6.19165 32.7458L6.08758 32.8672C6.23022 33.2193 6.38528 33.6152 6.55305 34.0823Z" fill="#123E89"/>
    <path d="M6.08758 32.8672L4.03029 35.2687C4.2262 35.629 4.4381 35.9869 4.66695 36.3403L6.55305 34.0823C6.38528 33.6152 6.23022 33.2193 6.08758 32.8672Z" fill="#123E89"/>
    <path d="M2.70885 36.8111C2.67199 36.9968 2.62039 37.4126 2.70885 37.5908C2.7973 37.769 3.26167 37.7764 3.4828 37.7579L4.66695 36.3403C4.4381 35.9869 4.2262 35.629 4.03029 35.2687L2.70885 36.8111Z" fill="#123E89"/>
    <path d="M22.887 16.3729L28.4705 14.6465L30.0184 9.46731V15.5375H35.9337L30.4054 17.3196L28.8575 22.276V16.3729H22.887Z" fill="#123E89"/>
    <path d="M18.9619 12.4746L38.6425 0L11.9963 8.29782L21.2285 7.57385L18.8514 12.5303L18.9619 12.4746Z" fill="#123E89"/>
    <path d="M38.0344 25.7288H32.0086L37.6474 23.891L39.14 18.8232V24.7821H45L39.6376 26.5642L38.0344 31.6877V25.7288Z" fill="#123E89"/>
</svg>
